<?xml version="1.0" encoding="UTF-8"?>
<!DOCTYPE svg PUBLIC "-//W3C//DTD SVG 1.1//EN" "http://www.w3.org/Graphics/SVG/1.1/DTD/svg11.dtd">
<svg version="1.2" width="300mm" height="120mm" viewBox="0 0 30000 12000" preserveAspectRatio="xMidYMid" fill-rule="evenodd" stroke-width="28.222" stroke-linejoin="round" xmlns="http://www.w3.org/2000/svg" xmlns:ooo="http://xml.openoffice.org/svg/export" xmlns:xlink="http://www.w3.org/1999/xlink" xmlns:presentation="http://sun.com/xmlns/staroffice/presentation" xmlns:smil="http://www.w3.org/2001/SMIL20/" xmlns:anim="urn:oasis:names:tc:opendocument:xmlns:animation:1.0" xmlns:svg="urn:oasis:names:tc:opendocument:xmlns:svg-compatible:1.0" xml:space="preserve">
 <defs class="ClipPathGroup">
  <clipPath id="presentation_clip_path" clipPathUnits="userSpaceOnUse">
   <rect x="0" y="0" width="30000" height="12000"/>
  </clipPath>
  <clipPath id="presentation_clip_path_shrink" clipPathUnits="userSpaceOnUse">
   <rect x="30" y="12" width="29940" height="11976"/>
  </clipPath>
 </defs>
 <defs class="TextShapeIndex">
  <g ooo:slide="id1" ooo:id-list="id3 id4 id5 id6 id7 id8 id9 id10 id11 id12 id13"/>
 </defs>
 <defs class="EmbeddedBulletChars">
  <g id="bullet-char-template-57356" transform="scale(0.00048828125,-0.00048828125)">
   <path d="M 580,1141 L 1163,571 580,0 -4,571 580,1141 Z"/>
  </g>
  <g id="bullet-char-template-57354" transform="scale(0.00048828125,-0.00048828125)">
   <path d="M 8,1128 L 1137,1128 1137,0 8,0 8,1128 Z"/>
  </g>
  <g id="bullet-char-template-10146" transform="scale(0.00048828125,-0.00048828125)">
   <path d="M 174,0 L 602,739 174,1481 1456,739 174,0 Z M 1358,739 L 309,1346 659,739 1358,739 Z"/>
  </g>
  <g id="bullet-char-template-10132" transform="scale(0.00048828125,-0.00048828125)">
   <path d="M 2015,739 L 1276,0 717,0 1260,543 174,543 174,936 1260,936 717,1481 1274,1481 2015,739 Z"/>
  </g>
  <g id="bullet-char-template-10007" transform="scale(0.00048828125,-0.00048828125)">
   <path d="M 0,-2 C -7,14 -16,27 -25,37 L 356,567 C 262,823 215,952 215,954 215,979 228,992 255,992 264,992 276,990 289,987 310,991 331,999 354,1012 L 381,999 492,748 772,1049 836,1024 860,1049 C 881,1039 901,1025 922,1006 886,937 835,863 770,784 769,783 710,716 594,584 L 774,223 C 774,196 753,168 711,139 L 727,119 C 717,90 699,76 672,76 641,76 570,178 457,381 L 164,-76 C 142,-110 111,-127 72,-127 30,-127 9,-110 8,-76 1,-67 -2,-52 -2,-32 -2,-23 -1,-13 0,-2 Z"/>
  </g>
  <g id="bullet-char-template-10004" transform="scale(0.00048828125,-0.00048828125)">
   <path d="M 285,-33 C 182,-33 111,30 74,156 52,228 41,333 41,471 41,549 55,616 82,672 116,743 169,778 240,778 293,778 328,747 346,684 L 369,508 C 377,444 397,411 428,410 L 1163,1116 C 1174,1127 1196,1133 1229,1133 1271,1133 1292,1118 1292,1087 L 1292,965 C 1292,929 1282,901 1262,881 L 442,47 C 390,-6 338,-33 285,-33 Z"/>
  </g>
  <g id="bullet-char-template-9679" transform="scale(0.00048828125,-0.00048828125)">
   <path d="M 813,0 C 632,0 489,54 383,161 276,268 223,411 223,592 223,773 276,916 383,1023 489,1130 632,1184 813,1184 992,1184 1136,1130 1245,1023 1353,916 1407,772 1407,592 1407,412 1353,268 1245,161 1136,54 992,0 813,0 Z"/>
  </g>
  <g id="bullet-char-template-8226" transform="scale(0.00048828125,-0.00048828125)">
   <path d="M 346,457 C 273,457 209,483 155,535 101,586 74,649 74,723 74,796 101,859 155,911 209,963 273,989 346,989 419,989 480,963 531,910 582,859 608,796 608,723 608,648 583,586 532,535 482,483 420,457 346,457 Z"/>
  </g>
  <g id="bullet-char-template-8211" transform="scale(0.00048828125,-0.00048828125)">
   <path d="M -4,459 L 1135,459 1135,606 -4,606 -4,459 Z"/>
  </g>
  <g id="bullet-char-template-61548" transform="scale(0.00048828125,-0.00048828125)">
   <path d="M 173,740 C 173,903 231,1043 346,1159 462,1274 601,1332 765,1332 928,1332 1067,1274 1183,1159 1299,1043 1357,903 1357,740 1357,577 1299,437 1183,322 1067,206 928,148 765,148 601,148 462,206 346,322 231,437 173,577 173,740 Z"/>
  </g>
 </defs>
 <g>
  <g id="id2" class="Master_Slide">
   <g id="bg-id2" class="Background"/>
   <g id="bo-id2" class="BackgroundObjects"/>
  </g>
 </g>
 <g class="SlideGroup">
  <g>
   <g id="container-id1">
    <g id="id1" class="Slide" clip-path="url(#presentation_clip_path)">
     <g class="Page">
      <g class="com.sun.star.drawing.CustomShape">
       <g id="id3">
        <rect class="BoundingBox" stroke="none" fill="none" x="1946" y="1946" width="8109" height="8109"/>
        <path fill="none" stroke="rgb(253,10,10)" stroke-width="106" stroke-linejoin="round" d="M 10001,6000 C 10001,6703 9816,7393 9465,8001 9114,8609 8609,9114 8001,9465 7393,9816 6703,10001 6001,10001 5298,10001 4608,9816 4000,9465 3392,9114 2887,8609 2536,8001 2185,7393 2000,6703 2000,6001 2000,5298 2185,4608 2536,4000 2887,3392 3392,2887 4000,2536 4608,2185 5298,2000 6000,2000 6703,2000 7393,2185 8001,2536 8609,2887 9114,3392 9465,4000 9816,4608 10001,5298 10001,6000 L 10001,6000 Z"/>
       </g>
      </g>
      <g class="com.sun.star.drawing.CustomShape">
       <g id="id4">
        <rect class="BoundingBox" stroke="none" fill="none" x="2947" y="2947" width="6108" height="6108"/>
        <path fill="none" stroke="rgb(207,114,196)" stroke-width="106" stroke-linejoin="round" d="M 9001,6001 C 9001,6527 8862,7045 8599,7501 8336,7957 7957,8336 7501,8599 7045,8862 6527,9001 6001,9001 5474,9001 4956,8862 4500,8599 4044,8336 3665,7957 3402,7501 3139,7045 3000,6527 3000,6001 3000,5474 3139,4956 3402,4500 3665,4044 4044,3665 4500,3402 4956,3139 5474,3000 6000,3000 6527,3000 7045,3139 7501,3402 7957,3665 8336,4044 8599,4500 8862,4956 9001,5474 9001,6000 L 9001,6001 Z"/>
       </g>
      </g>
      <g class="com.sun.star.drawing.CustomShape">
       <g id="id5">
        <rect class="BoundingBox" stroke="none" fill="none" x="3947" y="3947" width="4108" height="4108"/>
        <path fill="none" stroke="rgb(52,101,164)" stroke-width="106" stroke-linejoin="round" d="M 8001,6001 C 8001,6352 7909,6697 7733,7001 7557,7305 7305,7557 7001,7733 6697,7909 6352,8001 6001,8001 5649,8001 5304,7909 5000,7733 4696,7557 4444,7305 4268,7001 4092,6697 4000,6352 4000,6001 4000,5649 4092,5304 4268,5000 4444,4696 4696,4444 5000,4268 5304,4092 5649,4000 6000,4000 6352,4000 6697,4092 7001,4268 7305,4444 7557,4696 7733,5000 7909,5304 8001,5649 8001,6000 L 8001,6001 Z"/>
       </g>
      </g>
      <g class="com.sun.star.drawing.CustomShape">
       <g id="id6">
        <rect class="BoundingBox" stroke="none" fill="none" x="4947" y="4947" width="2108" height="2108"/>
        <path fill="none" stroke="rgb(12,247,98)" stroke-width="106" stroke-linejoin="round" d="M 7001,6001 C 7001,6176 6955,6349 6867,6501 6779,6653 6653,6779 6501,6867 6349,6955 6176,7001 6001,7001 5825,7001 5652,6955 5500,6867 5348,6779 5222,6653 5134,6501 5046,6349 5000,6176 5000,6001 5000,5825 5046,5652 5134,5500 5222,5348 5348,5222 5500,5134 5652,5046 5825,5000 6000,5000 6176,5000 6349,5046 6501,5134 6653,5222 6779,5348 6867,5500 6955,5652 7001,5825 7001,6000 L 7001,6001 Z"/>
       </g>
      </g>
      <g class="com.sun.star.drawing.CustomShape">
       <g id="id7">
        <rect class="BoundingBox" stroke="none" fill="none" x="10878" y="1880" width="182" height="163"/>
        <path fill="rgb(0,0,0)" stroke="none" d="M 11058,1961 C 11058,1975 11054,1989 11046,2001 11038,2013 11027,2023 11013,2030 11000,2037 10984,2041 10968,2041 10953,2041 10937,2037 10924,2030 10910,2023 10899,2013 10891,2001 10883,1989 10879,1975 10879,1961 10879,1947 10883,1933 10891,1921 10899,1909 10910,1899 10924,1892 10937,1885 10953,1881 10968,1881 10984,1881 11000,1885 11013,1892 11027,1899 11038,1909 11046,1921 11054,1933 11058,1947 11058,1961 L 11058,1961 Z"/>
        <path fill="none" stroke="rgb(0,0,0)" d="M 11058,1961 C 11058,1975 11054,1989 11046,2001 11038,2013 11027,2023 11013,2030 11000,2037 10984,2041 10968,2041 10953,2041 10937,2037 10924,2030 10910,2023 10899,2013 10891,2001 10883,1989 10879,1975 10879,1961 10879,1947 10883,1933 10891,1921 10899,1909 10910,1899 10924,1892 10937,1885 10953,1881 10968,1881 10984,1881 11000,1885 11013,1892 11027,1899 11038,1909 11046,1921 11054,1933 11058,1947 11058,1961 Z"/>
       </g>
      </g>
      <g class="com.sun.star.drawing.CustomShape">
       <g id="id8">
        <rect class="BoundingBox" stroke="none" fill="none" x="5879" y="5880" width="182" height="163"/>
        <path fill="rgb(0,0,0)" stroke="none" d="M 6059,5961 C 6059,5975 6055,5989 6047,6001 6039,6013 6028,6023 6014,6030 6001,6037 5985,6041 5969,6041 5954,6041 5938,6037 5925,6030 5911,6023 5900,6013 5892,6001 5884,5989 5880,5975 5880,5961 5880,5947 5884,5933 5892,5921 5900,5909 5911,5899 5925,5892 5938,5885 5954,5881 5969,5881 5985,5881 6001,5885 6014,5892 6028,5899 6039,5909 6047,5921 6055,5933 6059,5947 6059,5961 L 6059,5961 Z"/>
        <path fill="none" stroke="rgb(0,0,0)" d="M 6059,5961 C 6059,5975 6055,5989 6047,6001 6039,6013 6028,6023 6014,6030 6001,6037 5985,6041 5969,6041 5954,6041 5938,6037 5925,6030 5911,6023 5900,6013 5892,6001 5884,5989 5880,5975 5880,5961 5880,5947 5884,5933 5892,5921 5900,5909 5911,5899 5925,5892 5938,5885 5954,5881 5969,5881 5985,5881 6001,5885 6014,5892 6028,5899 6039,5909 6047,5921 6055,5933 6059,5947 6059,5961 Z"/>
       </g>
      </g>
      <g class="com.sun.star.drawing.CustomShape">
       <g id="id9">
        <rect class="BoundingBox" stroke="none" fill="none" x="10983" y="1903" width="17023" height="4005"/>
        <path fill="none" stroke="rgb(134,135,136)" d="M 10984,1904 L 28004,5906 10984,5906 10984,1904 10984,1904 Z"/>
       </g>
      </g>
      <g class="com.sun.star.drawing.LineShape">
       <g id="id10">
        <rect class="BoundingBox" stroke="none" fill="none" x="10933" y="2942" width="4732" height="139"/>
        <path fill="none" stroke="rgb(12,247,98)" stroke-width="106" stroke-linejoin="round" d="M 10986,3027 L 15611,2995"/>
       </g>
      </g>
      <g class="com.sun.star.drawing.LineShape">
       <g id="id11">
        <rect class="BoundingBox" stroke="none" fill="none" x="10947" y="3947" width="9107" height="107"/>
        <path fill="none" stroke="rgb(52,101,164)" stroke-width="106" stroke-linejoin="round" d="M 11000,4000 L 20000,4000"/>
       </g>
      </g>
      <g class="com.sun.star.drawing.LineShape">
       <g id="id12">
        <rect class="BoundingBox" stroke="none" fill="none" x="10947" y="4947" width="13357" height="107"/>
        <path fill="none" stroke="rgb(207,114,196)" stroke-width="106" stroke-linejoin="round" d="M 11000,5000 L 24250,5000"/>
       </g>
      </g>
      <g class="com.sun.star.drawing.LineShape">
       <g id="id13">
        <rect class="BoundingBox" stroke="none" fill="none" x="10954" y="5779" width="17072" height="159"/>
        <path fill="none" stroke="rgb(253,10,10)" stroke-width="106" stroke-linejoin="round" d="M 11007,5832 L 27972,5884"/>
       </g>
      </g>
     </g>
    </g>
   </g>
  </g>
 </g>
</svg>